
<svg width="2040px" height="1170px" viewBox="583 200 2040 1170" version="1.1" xmlns="http://www.w3.org/2000/svg" xmlns:xlink="http://www.w3.org/1999/xlink">
    <defs>
        <linearGradient x1="10.0129199%" y1="130.497592%" x2="90.0516796%" y2="-30.6581059%" id="linearGradient-1">
            <stop stop-color="#FFFFFF" offset="26%"></stop>
            <stop stop-color="#008BD0" offset="100%"></stop>
        </linearGradient>
        <linearGradient x1="1.89393939%" y1="106.342183%" x2="98.1060606%" y2="-6.34218289%" id="linearGradient-2">
            <stop stop-color="#FFFFFF" offset="21%"></stop>
            <stop stop-color="#008BD0" offset="100%"></stop>
        </linearGradient>
        <linearGradient x1="59.0704648%" y1="104.779874%" x2="40.7796102%" y2="-5.03144654%" id="linearGradient-3">
            <stop stop-color="#FFFFFF" offset="16%"></stop>
            <stop stop-color="#008BD0" offset="100%"></stop>
        </linearGradient>
        <linearGradient x1="70.5331412%" y1="113.344739%" x2="29.4668588%" y2="-13.5158255%" id="linearGradient-4">
            <stop stop-color="#008BD0" offset="33%"></stop>
            <stop stop-color="#FFFFFF" offset="100%"></stop>
        </linearGradient>
    </defs>
    <g id="logo" stroke="none" stroke-width="1" fill="none" fill-rule="evenodd" transform="translate(583.000000, 200.000000)">
        <g id="Group">
            <g id="id3" transform="translate(151.000000, 20.000000)">
                <rect id="Rectangle-path" x="0" y="0" width="1549" height="624"></rect>
                <polygon id="Shape" fill="url(#linearGradient-1)" points="784 0 853 2 920 7 985 16 1049 27 1109 42 1168 60 1223 80 1275 103 1324 128 1369 156 1410 186 1447 218 1480 251 1507 287 1530 324 1548 362 1526 328 1500 296 1470 265 1436 236 1398 208 1357 182 1313 158 1266 136 1216 116 1164 98 1109 83 1052 70 933 53 807 47 727 49 649 57 573 68 501 84 433 104 368 127 308 155 252 185 202 218 157 254 117 293 84 334 58 377 39 422 32 446 27 469 24 493 23 517 23 531 24 544 26 558 28 571 31 584 34 597 38 610 43 623 33 605 24 586 17 567 11 548 6 529 3 510 1 490 0 470 1 446 4 422 16 375 35 330 61 287 94 246 134 207 179 171 229 138 285 107 345 80 410 57 478 37 550 21 626 10 704 2"></polygon>
            </g>
            <g id="id4" transform="translate(198.000000, 89.000000)">
                <rect id="Rectangle-path" x="0" y="0" width="1323" height="681"></rect>
                <polygon id="Shape" fill="url(#linearGradient-2)" points="672 2 778 3 880 14 928 24 975 35 1021 49 1064 64 1105 82 1144 101 1180 122 1214 145 1246 170 1274 196 1299 224 1321 253 1297 228 1271 204 1242 182 1211 161 1177 142 1142 124 1105 108 1066 93 983 68 895 51 801 42 704 42 634 47 566 56 500 70 437 87 377 108 322 133 269 160 222 191 178 224 140 260 107 298 79 338 58 380 43 423 34 468 32 514 34 536 37 557 42 579 49 600 57 620 67 641 78 660 90 680 71 657 54 633 39 608 27 583 16 556 9 529 4 502 1 474 3 428 12 383 27 340 49 298 76 258 109 220 147 184 190 151 238 120 290 93 346 68 405 47 468 30 534 16 602 7"></polygon>
            </g>
            <g id="id5" transform="translate(264.000000, 178.000000)">
                <rect id="Rectangle-path" x="0" y="0" width="668" height="797"></rect>
                <polygon id="Shape" fill="url(#linearGradient-3)" points="623 1 645 1 656 1 667 2 604 5 543 11 484 21 428 35 374 51 323 71 276 94 233 120 193 148 158 178 127 211 101 245 81 282 65 319 56 359 53 399 56 438 65 476 79 513 98 548 122 582 151 614 184 644 221 671 262 697 306 720 354 740 405 758 458 772 514 784 572 792 632 796 623 796 559 794 497 788 438 778 381 765 326 748 275 728 227 706 183 680 142 652 106 621 75 588 49 553 28 517 13 479 3 439 0 398 3 357 13 318 28 280 49 243 75 208 106 176 142 145 183 117 227 91 275 69 326 49 381 32 438 19 497 9 559 3"></polygon>
            </g>
            <g id="id6">
                <rect id="Rectangle-path" x="0" y="0" width="1389" height="1170"></rect>
                <polygon id="Shape" fill="url(#linearGradient-4)" points="1388 1101 1338 1117 1287 1130 1234 1142 1179 1152 1123 1159 1067 1165 1009 1168 950 1169 853 1166 758 1157 667 1142 580 1121 497 1096 419 1065 346 1031 278 991 217 948 162 901 115 851 75 798 43 742 19 684 5 623 0 561 3 514 11 468 25 423 43 379 67 337 95 296 127 257 164 220 205 184 249 151 298 119 349 90 404 64 462 40 523 19 586 0 530 20 477 43 426 67 378 94 333 123 290 153 252 186 216 220 184 255 156 292 132 331 111 370 95 411 84 453 76 495 74 539 79 601 93 661 117 720 149 775 189 828 236 879 291 925 352 969 420 1008 493 1043 571 1073 655 1099 742 1120 833 1135 928 1144 1025 1147 1073 1146 1120 1144 1167 1140 1213 1135 1258 1129 1302 1121 1345 1112"></polygon>
            </g>
        </g>
        <g id="Group" transform="translate(518.000000, 355.000000)">
            <g id="id7" transform="translate(0.000000, 10.000000)">
                <rect id="Rectangle-path" x="0" y="0" width="282" height="347"></rect>
                <polygon id="Shape" fill="#0A1E56" points="120 0 281 0 161 346 0 346"></polygon>
            </g>
            <g id="id8" transform="translate(226.000000, 0.000000)">
                <rect id="Rectangle-path" x="1" y="0" width="516" height="366"></rect>
                <path d="M3,242 L161,235 C159,252 161,265 168,275 C180,289 202,296 233,296 C256,296 275,292 290,285 C306,278 315,268 318,259 C321,250 318,241 309,234 C299,227 274,220 233,214 C165,203 118,189 94,171 C69,153 62,131 71,103 C78,84 91,67 113,51 C135,35 163,22 198,13 C232,4 277,0 332,0 C401,0 449,8 479,25 C508,41 520,68 514,106 L357,112 C359,96 354,83 344,76 C333,68 317,65 294,65 C275,65 259,68 248,73 C236,78 229,85 227,93 C225,99 227,104 233,109 C239,113 256,117 283,121 C351,132 399,142 426,153 C453,163 471,176 480,192 C488,207 489,224 483,244 C475,266 458,288 433,307 C408,326 376,341 339,350 C302,360 258,365 207,365 C116,365 58,354 31,331 C5,308 -4,278 3,242 L3,242 Z" id="Shape" fill="#0A1E56"></path>
            </g>
        </g>
        <g id="id9" transform="translate(618.000000, 234.000000)">
            <rect id="Rectangle-path" x="0" y="0" width="230" height="122"></rect>
            <path d="M114,0 L114,0 C136,0 153,3 172,8 C190,14 203,21 214,30 C224,40 229,49 229,60 L229,60 L229,60 C229,72 224,81 214,91 C203,100 190,107 172,113 C153,118 136,121 114,121 C93,121 76,118 57,113 C39,107 26,100 15,91 C5,81 0,72 0,60 C0,49 5,40 15,30 C26,21 39,14 57,8 C76,3 93,0 114,0 L114,0 Z" id="Shape" fill="#E30016"></path>
        </g>
        <g id="id10" transform="translate(890.000000, 468.000000)">
            <rect id="Rectangle-path" x="0" y="1" width="1150" height="701"></rect>
            <text id="wash" fill="#0A1E56" font-family="BodoniSvtyTwoITCTT-BookIta, Bodoni 72" font-size="564" font-style="italic" font-weight="normal">
                <tspan x="18" y="534">wash</tspan>
            </text>
        </g>
    </g>
</svg>